<?xml version="1.0" encoding="UTF-8" standalone="no"?>
<svg width="130px" height="85px" viewBox="0 0 130 85" version="1.1" xmlns="http://www.w3.org/2000/svg" xmlns:xlink="http://www.w3.org/1999/xlink">
    <!-- Generator: Sketch 41.2 (35397) - http://www.bohemiancoding.com/sketch -->
    <title>MyDomain LOGO</title>
    <desc>Created with Sketch.</desc>
    <defs></defs>
    <g id="Page-1" stroke="none" stroke-width="1" fill="none" fill-rule="evenodd">
        <g id="Large-Devices-(-≥-1200px-)-Application-Form" transform="translate(-55.000000, -29.000000)" fill="#1B696E">
            <g id="MyDomain-LOGO" transform="translate(55.000000, 29.000000)">
                <path d="M65.2421875,58.484375 C81.3922017,58.484375 94.484375,45.3922017 94.484375,29.2421875 C94.484375,13.0921733 81.3922017,0 65.2421875,0 C49.0921733,0 36,13.0921733 36,29.2421875 C36,45.3922017 49.0921733,58.484375 65.2421875,58.484375 Z M43.018125,42.4986458 L40.0939063,42.4986458 L44.1878125,14.6210938 L55.6897396,37.2350521 L66.8017708,14.6210938 L70.7007292,38.2097917 L67.3808858,38.2097917 L65.4371354,23.0038542 L55.6897396,42.8885417 L45.5524479,23.0038542 L43.018125,42.4986458 Z M68.2803369,43.2936282 L78.4695901,43.2936282 C86.47364,43.2936282 92.9653003,36.832604 92.9653003,28.862626 C92.9653003,20.8905759 86.4753051,14.4312094 78.4695901,14.4312094 L68.6601055,14.4312094 L69.0398742,17.3595992 L78.4720879,17.3595992 C84.8521819,17.3595992 90.024196,22.5081113 90.024196,28.862626 C90.024196,35.215483 84.8496842,40.3656529 78.4679249,40.3656529 L67.9005682,40.3656529 L68.2803369,43.2936282 Z" id="Combined-Shape"></path>
                <g id="MyDomain" transform="translate(0.000000, 66.000000)">
                    <path d="M27.022757,17.7882375 C26.9919235,17.746025 26.9609066,17.7038126 26.9300731,17.6617837 C26.8977714,17.7047302 26.8502366,17.7434556 26.8364716,17.7919081 C26.8115112,17.8811048 26.8484012,17.9539672 26.9513629,17.9280891 C26.9847658,17.9198302 26.9996319,17.8372406 27.022757,17.7882375 M26.1533642,18.5875209 C25.4862241,18.6429477 24.9598532,18.1956793 24.473309,17.6641696 C24.2835365,17.456778 24.2945484,17.2422287 24.3659425,16.9860175 C24.6049017,16.1302061 24.9488413,15.3180754 25.3252662,14.516039 C25.8180506,13.466601 26.3121197,12.4169794 26.7704,11.3523082 C27.0774496,10.6387344 27.0324842,10.5783522 26.3001901,10.488972 C25.2201021,10.3573793 24.2343498,10.0563862 23.5571154,9.12037115 C23.2276748,8.6652109 22.59614,8.53435232 22.4072852,7.88519836 C22.1501563,7.00149005 22.1251959,6.14439393 22.3399288,5.26765984 C22.5598006,4.37037013 22.9666918,3.54814516 23.4112072,2.74684288 C23.7066943,2.21423197 24.2620632,2.02886428 24.8242228,2.22524391 C26.6344025,2.85751289 26.7889367,3.17135322 25.9162404,4.85361084 C25.5653265,5.53011112 25.4904453,6.30902246 25.0290449,6.94184203 C24.8572587,7.17749758 24.9310387,7.53667041 24.9572838,7.84151766 C25.0472146,8.8898545 25.4056533,9.18405688 26.4319663,9.06989975 C27.4357048,8.95831207 28.2039712,8.43708017 28.8153175,7.6704655 C29.1766928,7.21732411 29.5542188,6.76069559 29.8212584,6.25157683 C30.4359083,5.07862151 31.5189327,4.31769635 32.3444613,3.33359583 C32.6986787,2.9114714 33.4496932,2.61341485 34.0685643,2.80832622 C34.6296227,2.98525141 35.0743216,3.44316465 35.2347289,4.08387612 C35.4151412,4.80387357 34.744514,5.99977043 34.0067139,6.15540587 C33.4063795,6.28222673 33.0771225,6.57881502 33.1709075,7.2002556 C33.2072469,7.44196771 33.0541809,7.52547494 32.9480992,7.65009341 C32.433291,8.25373134 31.9526197,8.88710152 31.4504752,9.49606189 C30.8233451,10.2568035 30.3557046,11.0953629 29.881457,11.9379599 C29.7544526,12.1637047 29.6544275,12.04863 29.5074181,12.0750586 C29.2636871,12.1189229 29.2011026,12.4041321 29.2846098,12.6629128 C29.3174621,12.7651403 29.4242779,12.916738 29.2372584,12.9268323 C28.5736054,12.9629882 28.6407783,13.3236293 28.7698015,13.798611 C28.8441321,14.0726248 28.6093942,14.3506764 28.4337538,14.5158555 C28.077701,14.8509856 27.839843,15.2782489 27.5355464,15.6431112 C27.1249845,16.135345 26.7261687,16.733844 27.1257186,17.5200967 C27.4847079,18.2270633 27.1143396,18.6359734 26.1533642,18.5875209" id="Fill-1"></path>
                    <path d="M18.9054694,7.65677399 C18.8630734,7.63768662 18.7826862,7.62226991 18.7788321,7.59602478 C18.7503845,7.39799336 18.8606875,7.25447106 18.9937485,7.12691607 C19.0376127,7.08488715 19.1036843,7.10691104 19.115981,7.18472876 C19.146998,7.378906 19.0774392,7.53931328 18.9054694,7.65677399 M18.6048434,8.32079407 C18.5648333,8.34134969 18.5248233,8.36208885 18.4848132,8.38301154 C18.5053688,8.34318502 18.526108,8.30335849 18.5466636,8.2637155 C18.5444612,8.14478654 18.5483154,8.02732582 18.6828446,7.97593676 C18.6927554,7.97208258 18.7325819,8.01466209 18.7399232,8.04090722 C18.7766297,8.17139873 18.7452456,8.27362625 18.6048434,8.32079407 M17.3109402,11.6689749 C17.2876316,11.7108203 17.2287177,11.7326606 17.1655826,11.7783602 C17.1569566,11.6847587 17.1362174,11.6021691 17.1483306,11.5247185 C17.1531024,11.493885 17.2424827,11.4437807 17.2727655,11.4555268 C17.3839861,11.4986569 17.3527856,11.5946443 17.3109402,11.6689749 M4.15368888,12.8186216 C4.13753803,12.8224758 4.08853489,12.7747574 4.09238907,12.7622772 C4.10853991,12.7090528 4.13900629,12.6600497 4.16433375,12.6095783 C4.18433878,12.6321527 4.21131804,12.6514236 4.22232998,12.6776688 C4.25151162,12.7468605 4.22673475,12.8010025 4.15368888,12.8186216 M3.77542868,13.5389861 C3.66861285,13.5132916 3.67558708,13.4218925 3.71890071,13.3493972 C3.7398234,13.3143425 3.80497739,13.3057165 3.85012635,13.2851609 C3.86315715,13.3380182 3.87618795,13.390692 3.88921874,13.4433658 C3.85067695,13.4773193 3.8038762,13.5459604 3.77542868,13.5389861 M19.3731098,3.88683578 C19.0699144,3.46489488 18.4967428,3.07800867 17.9345832,3.28760262 C16.8271489,3.70055043 15.5839007,3.93602245 14.9042804,5.08566915 C14.8530749,5.17229643 14.7813137,5.24717763 14.6934017,5.22735614 C13.858513,5.03813427 13.4648361,5.77189665 12.8749631,6.09069236 C12.5332258,6.27532591 12.210943,6.81454399 11.8960015,6.63633407 C11.5823447,6.45904181 11.6062039,5.88073134 11.6078557,5.45144915 C11.6082228,5.3598665 11.61795,5.26773326 11.6111593,5.17688474 C11.5337086,4.13882571 11.1266338,3.2290558 10.4453617,2.46262466 C9.96230454,1.91881828 9.29755034,1.88780131 8.71979047,2.32570952 C8.45476974,2.52649392 8.19452085,2.76049768 8.00658371,3.03139145 C7.54977167,3.68972202 6.97549891,4.22857303 6.40452974,4.77935365 C6.0106693,5.15944916 5.64966114,5.5793712 5.31471459,6.01287464 C3.96887179,7.75459674 2.87593658,9.66333328 1.71968271,11.5294903 C1.36711705,12.0984406 1.07309821,12.7035468 0.749530658,13.2902998 C0.559758197,13.63479 0.515159834,13.9807485 0.724203192,14.3323965 C1.07273114,14.9182318 1.50715224,15.4268 2.1063854,15.7668855 C2.75480523,16.1345008 2.90952301,16.0319062 2.94953306,15.2775882 C2.97577819,14.7824179 2.92200321,14.2376938 3.51921751,13.99745 C3.51811631,13.989191 3.51774925,13.9807485 3.51646452,13.9728566 L3.53793781,13.9488139 L3.53757074,13.989191 C3.53096358,13.9917605 3.52564114,13.9948805 3.51921751,13.99745 C3.52821059,14.0804066 3.52509054,14.1697869 3.56142995,14.238428 C3.63961473,14.386355 3.69228852,14.2542117 3.72605848,14.1982344 C3.85214521,13.9902922 3.96850472,13.7766605 4.08871842,13.5652313 C5.06731296,11.842413 5.9715769,10.0760976 7.07534052,8.42614164 C7.5686755,7.68870862 8.11174776,6.99128565 8.77117953,6.39186896 C8.87762829,6.29496388 8.99637373,6.12005754 9.13787718,6.2031977 C9.28892431,6.29184383 9.36674203,6.48436927 9.29553148,6.68148303 C9.23331401,6.85308578 9.15567982,7.01918257 9.08924111,7.1895006 C8.79026689,7.95538114 8.52451203,8.73649486 8.18534423,9.4842057 C7.89077479,10.1331761 7.99336938,10.7160749 8.28922355,11.3145739 C8.45366854,11.6475016 8.64509279,12.1369824 8.99325368,12.060633 C9.5179727,11.9455582 10.0760946,12.3260208 10.546488,11.9255532 C11.6856734,10.9563188 12.8777161,10.0382899 13.9284388,8.98004231 C14.4759159,8.4287111 15.0057738,7.91959233 15.7147593,7.61621334 C15.9572056,7.51251755 16.260034,7.19647483 16.4431992,7.37743774 C16.6922527,7.62373816 16.34556,7.91683934 16.2269981,8.17286699 C15.5367329,9.66516861 14.712122,11.0958034 14.1444564,12.6440823 C13.7696834,13.6659905 14.2154835,14.8292186 15.108919,15.4435014 C15.5297587,15.7327484 15.9977662,15.6345586 16.4283331,15.7013644 C16.7667668,15.7536711 16.7987014,15.2144531 16.9497486,14.9323638 C17.1070358,14.6385285 17.2149528,14.3182645 17.3450773,14.0099302 C17.4434506,13.7766605 17.51668,13.5164117 17.3639811,13.3064506 C16.9827844,12.7820987 17.4010546,12.3944783 17.6904852,12.2076424 C18.3332155,11.7934099 18.2983443,11.1203967 18.5297787,10.5485099 C18.5565744,10.4822547 18.5659345,10.3767236 18.4629729,10.3462572 C18.4460879,10.3413018 18.3886423,10.4345363 18.367536,10.4890454 C18.3018315,10.6589963 18.2662262,10.8447311 18.1770295,11.0003665 C18.1082048,11.1203967 18.1300452,11.408726 17.8782388,11.283557 C17.8083129,11.2486858 17.8387793,11.0121126 17.8264826,10.8621667 C17.7027818,10.8625337 17.5473299,11.1549008 17.5218189,10.9133722 C17.4674934,10.3970957 17.6633224,9.91275376 18.0210269,9.51503914 C18.1350005,9.38803474 18.1623469,9.52127924 18.1933638,9.58735089 C18.2095147,9.62185497 18.2131853,9.66204856 18.2163054,9.70260921 C18.3662513,9.49980595 18.792597,9.58533203 18.7639659,9.21202721 C18.727443,8.73300775 19.1440615,7.83388272 19.5863744,7.70999837 C20.0239156,7.58758229 20.1533059,7.31870738 20.2399332,6.9387954 C20.5082575,5.76125177 20.0127201,4.77678419 19.3731098,3.88683578" id="Fill-7"></path>
                    <path d="M87.5434337,7.65130472 C87.5192074,7.66562025 87.4208341,7.61918656 87.4175305,7.59312497 C87.3923866,7.39454295 87.5041578,7.25267244 87.6298775,7.12952222 C87.6887913,7.09465108 87.7488064,7.11410551 87.7587172,7.19100557 C87.7836776,7.38463221 87.7161377,7.54944426 87.5434337,7.65130472 L87.5434337,7.65130472 Z M87.2461113,8.32083077 C87.2061012,8.34156993 87.1660912,8.36212556 87.1262647,8.38268118 C87.1466368,8.34303819 87.1670088,8.30321167 87.187748,8.26356868 C87.1855456,8.14463971 87.1893998,8.027179 87.323929,7.97597347 C87.3338398,7.97230282 87.3736663,8.0146988 87.3810076,8.04094393 C87.417714,8.17143543 87.3865135,8.27366296 87.2461113,8.32083077 L87.2461113,8.32083077 Z M85.9531258,11.6669928 C85.9298172,11.7101229 85.8714539,11.7339821 85.8086858,11.781884 C85.7987751,11.6877319 85.7807889,11.6064271 85.7848266,11.526407 C85.7883138,11.4583165 85.8475947,11.4239959 85.9129322,11.4517093 C86.0247034,11.4990607 85.9935029,11.5926622 85.9531258,11.6669928 L85.9531258,11.6669928 Z M72.867085,12.7659845 C72.8503836,12.7808507 72.8316633,12.8070958 72.8158795,12.8177407 C72.8107406,12.8214113 72.8056017,12.8232466 72.8013804,12.822329 C72.7246639,12.8067287 72.7019059,12.7535043 72.7373276,12.683395 C72.7503584,12.6577004 72.7758694,12.6386131 72.7958744,12.6164057 C72.8193666,12.6661429 72.8432258,12.7160637 72.867085,12.765801 L72.867085,12.7659845 Z M72.3871479,13.5434276 C72.3620039,13.5390228 72.3319046,13.4457884 72.3407142,13.4006394 C72.3493402,13.3565917 72.4049505,13.3217205 72.4400052,13.2831787 C72.4721234,13.3171322 72.5288349,13.3505351 72.5303031,13.3859569 C72.5343408,13.4751536 72.4991026,13.5630656 72.3871479,13.5434276 L72.3871479,13.5434276 Z M88.0141942,3.88687248 C87.7109988,3.46493159 87.1378272,3.07804537 86.5758511,3.28763933 C85.4682333,3.70058714 84.2249851,3.93605916 83.5455483,5.08570586 C83.4943428,5.17233314 83.4223981,5.24703081 83.3344861,5.22720931 C82.4997809,5.03817098 82.1059205,5.77193336 81.5158639,6.09072907 C81.1743102,6.27536262 80.8522109,6.81458069 80.5369023,6.63637077 C80.2234291,6.45907851 80.2472883,5.88076805 80.2489401,5.45148586 C80.2493071,5.35990321 80.2592179,5.26776996 80.2522436,5.17692144 C80.1749765,4.13886241 79.7677182,3.22909251 79.0864461,2.46266137 C78.6033889,1.91885499 77.9388182,1.88783802 77.3610584,2.3255627 C77.0958541,2.52653063 76.8354217,2.76053439 76.6476681,3.03142815 C76.1910396,3.68975873 75.6165833,4.22860974 75.0456141,4.77939035 C74.6519372,5.15930234 74.2907455,5.57940791 73.955799,6.01291135 C72.6099562,7.75463344 71.5168374,9.66318646 70.3607671,11.529527 C70.008385,12.0982938 69.7141826,12.7034 69.3907986,13.2903365 C69.2008426,13.6348267 69.1562442,13.9806017 69.3652876,14.3322497 C69.713999,14.9182685 70.1482366,15.4268367 70.7474698,15.7669222 C71.3960731,16.1345375 71.5506074,16.0319429 71.5906174,15.2776249 C71.6168626,14.782271 71.5630876,14.2377305 72.1603019,13.9974867 C72.1593842,13.9892277 72.1590172,13.9806017 72.1577324,13.9727098 L72.1788386,13.9488506 L72.1786551,13.9892277 C72.1720479,13.9917972 72.1667255,13.9947337 72.1603019,13.9974867 C72.1691114,14.0802598 72.1661749,14.1698236 72.2025143,14.2384647 C72.2806991,14.3863917 72.3333729,14.2542484 72.3673264,14.1982711 C72.4932296,13.9903289 72.6095891,13.7766972 72.7296193,13.565268 C73.7083973,11.8424497 74.6124777,10.0759507 75.7164249,8.42617835 C76.2097599,7.68874533 76.7530157,6.99132236 77.4122639,6.39190567 C77.5188962,6.29500058 77.6374581,6.12009424 77.7789616,6.20305087 C77.9300087,6.291697 78.0078264,6.48440598 77.9364323,6.6813362 C77.8743984,6.85312249 77.7967642,7.01921928 77.7303255,7.18935377 C77.4313513,7.95541785 77.1657799,8.73653157 76.8262451,9.48405887 C76.5318592,10.1332128 76.6346373,10.7161116 76.9303079,11.3146106 C77.0947529,11.6475383 77.2861772,12.1370191 77.6343381,12.0604861 C78.1590571,11.9454114 78.717179,12.3260575 79.1875724,11.9255899 C80.3267578,10.9563555 81.518984,10.0381431 82.5695232,8.98007901 C83.1170003,8.42856427 83.6470417,7.9194455 84.3558437,7.61625004 C84.5981064,7.51255426 84.9013019,7.196328 85.0844672,7.37747444 C85.333337,7.62377487 84.9864609,7.91687605 84.8680825,8.17290369 C84.1778173,9.66520531 83.3533899,11.0958401 82.7855408,12.6441191 C82.4107677,13.6658437 82.8565678,14.8290718 83.7501869,15.4435381 C84.1708431,15.7327851 84.6388506,15.6345953 85.069601,15.7012176 C85.4078512,15.7535243 85.4397858,15.2144898 85.5908329,14.9324005 C85.7481202,14.6383817 85.8560372,14.3183012 85.9861616,14.0099669 C86.084535,13.7766972 86.1577644,13.5164484 86.0050655,13.3063038 C85.6240523,12.7821354 86.042139,12.394515 86.3315695,12.2076791 C86.9742999,11.793263 86.9394287,11.1202499 87.170863,10.5485466 C87.1976587,10.4821078 87.2072024,10.3767603 87.1038737,10.3462939 C87.0871723,10.3413385 87.0297266,10.434573 87.0086204,10.4890821 C86.9430994,10.659033 86.9073106,10.8445843 86.8181138,11.0004032 C86.7494727,11.1204334 86.7711295,11.4087627 86.5193231,11.2835937 C86.4495808,11.2487225 86.4800472,11.0121493 86.467567,10.8622034 C86.3438662,10.862754 86.1884143,11.1547539 86.1630868,10.9132254 C86.1085777,10.3971324 86.3044068,9.91260694 86.6621113,9.51489231 C86.7760849,9.38807145 86.8036148,9.52113241 86.8344482,9.58738759 C86.8505991,9.62170814 86.8540862,9.6622688 86.8573898,9.70264592 C87.0071522,9.49984266 87.4336814,9.58536874 87.4050503,9.21188038 C87.3685274,8.73304446 87.7849623,7.83391942 88.2274588,7.71003508 C88.665,7.58743546 88.7942067,7.31874409 88.8810176,6.9388321 C89.1493419,5.76128848 88.6538045,4.7768209 88.0141942,3.88687248 L88.0141942,3.88687248 Z" id="Fill-9"></path>
                    <path d="M127.712648,3.88145828 C127.674656,3.89100196 127.581238,3.83869524 127.581422,3.8152031 C127.582707,3.68471159 127.702003,3.64580273 127.791199,3.58523705 C127.861492,3.5373351 127.901502,3.55678953 127.910128,3.64139795 C127.897098,3.76509876 127.829374,3.85227663 127.712648,3.88145828 M125.539074,6.25049399 C125.500348,6.21507224 125.429872,6.16937268 125.436112,6.1535889 C125.510443,5.96216465 125.609917,5.78487239 125.813638,5.70411815 C125.828871,5.69787805 125.91091,5.78413826 125.903018,5.80634567 C125.835295,5.9959346 125.759863,6.18589059 125.539074,6.25049399 M125.266895,6.69537643 C125.214221,6.79998987 125.172009,6.91231168 125.105203,7.00683084 C125.058953,7.07216836 124.936537,7.16870638 124.920386,7.15640972 C124.799438,7.06446 124.854315,6.9458981 124.920203,6.84679062 C124.985173,6.74915141 125.068313,6.66380886 125.143378,6.57314387 C125.193115,6.51496412 125.258636,6.44779127 125.326176,6.51533118 C125.395184,6.58397228 125.325809,6.64692388 125.266895,6.69537643 M116.451836,5.06028663 C116.387967,5.09313892 116.302441,5.07533628 116.30446,5.01146702 C116.311067,4.80866376 116.460095,4.69689256 116.61885,4.60090513 C116.668955,4.62347961 116.75705,4.64128225 116.75962,4.66771091 C116.782194,4.8905192 116.61518,4.97622881 116.451836,5.06028663 M129.032979,3.39216101 C128.819898,3.31305856 128.565706,3.34425906 128.329133,3.32755762 C128.329867,3.33049413 128.33005,3.33361418 128.331152,3.3365507 L128.303255,3.36481469 L128.320874,3.32700702 C128.323627,3.32719055 128.326563,3.32737408 128.329133,3.32755762 C128.289673,3.17926347 128.524411,3.00435713 128.260308,2.86982791 C127.327046,2.39411203 125.88595,2.69088386 125.18871,3.51622888 L125.205412,3.50356515 C125.529347,3.59312894 125.34508,3.75059971 125.254415,3.89045137 C125.103184,4.123721 124.958194,4.01066506 124.815956,3.87723704 L124.829905,3.90421629 C123.893706,4.83307357 123.178848,5.93371713 122.414435,6.99655303 C122.337352,7.10373593 122.278988,7.34930223 122.115094,7.25882077 C121.95744,7.1716429 122.089216,6.9838893 122.16997,6.85945436 C122.900245,5.72981268 123.655848,4.6188913 124.558277,3.61515282 C124.648942,3.51439356 124.849543,3.38849036 124.726209,3.25249288 C124.578832,3.09025027 124.464859,3.30791965 124.371441,3.40078703 C124.220577,3.5509165 124.091738,3.72417105 123.960328,3.89265375 C122.886481,5.26786173 121.965332,6.74566429 121.04455,8.22401745 C120.931677,8.40534743 120.82633,8.59144924 120.711989,8.77186155 C120.649772,8.8702349 120.594528,8.99815695 120.448987,8.97888605 C120.299592,8.95906456 120.280321,8.82159882 120.252241,8.7052393 C120.144324,8.26072393 119.997865,7.82042979 119.942254,7.36912372 C119.794694,6.17029034 119.086443,5.39174607 118.128404,4.75690764 C116.880751,3.93027789 116.889194,3.91706356 115.825624,5.0090811 C115.655122,5.1843545 115.485722,5.36091264 115.316321,5.53728723 C113.591668,7.33406904 112.128181,9.30318773 111.058921,11.5747678 C110.435095,12.9002385 110.533835,14.085674 111.268332,15.2966205 C111.864261,16.2790692 112.522775,16.297973 113.082916,15.30231 C114.071972,13.54407 114.735808,11.6309287 115.662647,9.84240581 C115.703024,9.76385396 115.732573,9.67410663 115.743585,9.58674523 C115.877013,8.53749073 116.642159,7.99111489 117.433551,7.47208538 C117.742069,7.26983271 117.8632,7.43097413 117.896419,7.74701685 C117.947808,8.2350294 117.963041,8.72028896 117.929088,9.21123802 C117.806672,10.9845277 118.30276,12.7170732 118.293216,14.4852239 C118.292115,14.6889448 118.392874,14.9012918 118.477666,15.0962032 C118.670742,15.5403515 119.004037,15.8585966 119.474798,15.9707348 C119.92904,16.0786519 120.408794,15.903562 120.874966,16.1406858 C121.144758,16.277968 121.179997,15.9041126 121.251207,15.7345287 C121.640296,14.806222 121.99745,13.8645175 122.381767,12.9340084 C122.645686,12.2951323 122.742408,11.5865138 123.174993,11.017747 L123.154071,11.0359167 C123.125623,10.666099 123.458918,10.4689853 123.581885,10.1588156 C123.997035,9.11084582 124.529279,8.13518779 125.30507,7.26763033 C126.415441,6.02585038 127.649329,4.96705219 129.060326,4.09729234 C129.424087,3.87301579 129.415828,3.53458212 129.032979,3.39216101" id="Fill-11"></path>
                    <path d="M65.8471925,9.18838824 C65.3441303,9.8755334 64.6428531,10.3044485 63.8775232,10.6296679 C62.5887589,11.1769614 61.2895334,11.699478 59.9980161,12.2407149 C59.4253952,12.4804082 58.8423129,12.6187916 58.219037,12.5112416 L58.1909565,12.5360185 L58.2157334,12.507938 C58.3686158,11.2668922 59.0076755,10.2917848 59.9339633,9.50479803 C60.261018,9.22674651 60.5665994,8.9448408 60.8429991,8.61686847 C61.5807992,7.74196971 62.4736841,7.06216585 63.5253246,6.60186669 C64.5079568,6.17185037 65.1260938,6.31353735 65.8205803,7.12658571 C66.8237681,8.30100928 66.8015607,7.88457435 65.8471925,9.18838824 M64.7977544,12.9887928 C64.7382899,13.1196514 64.6437708,13.2494088 64.4655608,13.2171071 C64.3748959,13.2007727 64.3174502,13.1403906 64.3567262,13.0229298 C64.4235319,12.9041844 64.4974955,12.7672693 64.6769901,12.7960838 C64.7738952,12.8116841 64.8307902,12.9162975 64.7977544,12.9887928 M63.7611637,13.6440034 C63.6508607,13.6684132 63.5521203,13.624916 63.6009399,13.517366 C63.6453547,13.4193597 63.7606131,13.3441115 63.8599041,13.2837293 C63.9368041,13.2372956 64.0579355,13.2552818 64.0627073,13.3591611 C64.0717004,13.5491171 63.9090907,13.5981203 63.7611637,13.6440034 M62.9244396,14.1545904 C62.8389135,14.1246746 62.7833032,14.0707161 62.8189085,13.9756463 C62.852862,13.8842472 62.9295785,13.8616727 63.0081304,13.9128783 C63.048691,13.9394905 63.0921882,13.9973031 63.0931059,14.0419015 C63.0953082,14.1487173 63.009048,14.1580775 62.9244396,14.1545904 M59.5573549,15.422799 C59.5087189,15.4231661 59.4598993,15.3728782 59.4110796,15.3449813 C59.4580639,15.314882 59.5046812,15.261474 59.552216,15.2607399 C59.5997509,15.2600058 59.648387,15.3112113 59.6964725,15.3400259 C59.6500388,15.3701252 59.6039722,15.4224319 59.5573549,15.422799 M59.4576969,9.13828391 C59.5610256,9.12580371 59.6599495,9.1836164 59.6348056,9.2777685 C59.5716705,9.51470878 59.4195221,9.68906452 59.1937773,9.75954095 C59.0689753,9.74595955 58.9909741,9.68557741 58.9939106,9.58995705 C59.0023531,9.29777353 59.189189,9.17076914 59.4576969,9.13828391 M67.2324947,5.52838591 C66.6938272,5.11782402 66.1575457,4.69313014 65.9162006,4.03883728 C65.3645023,2.54378267 64.1748456,2.28665384 63.0189588,2.75374369 C60.6379935,3.71618739 58.6286812,5.13966438 57.1108686,7.21780129 C56.1702652,8.50546433 55.615814,9.93866853 55.6494004,11.5620123 C55.653071,12.3594604 55.6227882,13.1921467 56.1478743,13.8436866 C56.7456392,14.5857079 57.5742878,15.0821629 58.3621922,15.6043125 C58.8329527,15.916134 59.4336541,15.7048882 59.9119395,15.6958951 C60.5574228,15.6835985 61.4961908,15.6534992 61.7479972,14.6756387 C61.7870896,14.5233069 61.9460286,14.3885941 62.0961581,14.4932076 C62.4969928,14.7723603 62.8172567,14.728129 63.0973271,14.3348192 C64.0981291,14.4770567 64.568706,13.548383 65.268882,13.1414917 C65.8857343,12.7832366 66.5736135,12.3284434 67.064012,11.7240713 C67.3027876,11.4296854 67.7019705,11.5041996 67.9776361,11.1301606 C69.5442683,9.00614061 69.3326555,7.1282375 67.2324947,5.52838591" id="Fill-14"></path>
                    <path d="M99.4820119,5.09915878 C99.2999478,5.93202863 99.1389899,6.77058799 98.921137,7.59409769 C98.8539641,7.84810647 98.9304971,8.31519633 98.3486995,8.19553323 C98.2053608,8.16580099 98.0981779,8.56718626 98.0579843,8.80247475 C97.9950327,9.17045713 97.8214111,9.39253129 97.4304871,9.47328552 C96.3291094,9.70068212 95.3446419,10.2006243 94.4200058,10.8268367 C94.4146834,10.8422534 94.4077092,10.8567525 94.4023867,10.8723527 L94.3844006,10.8503288 C94.3961466,10.8422534 94.4080762,10.8349121 94.4200058,10.8268367 C94.7382509,9.90807369 95.399151,9.20808126 95.9583741,8.44421958 C96.2426657,8.05604864 96.5998197,7.72220328 96.5645815,7.16463197 C96.5544872,7.00514234 96.5972502,6.65184255 97.0090968,6.84455153 C97.2355758,6.9504497 97.3258737,6.63550817 97.4473721,6.48739756 C97.9309799,5.89825868 98.3806342,5.2790205 98.9738108,4.78990676 C99.1072388,4.67997087 99.2643425,4.5116717 99.4453054,4.66455415 C99.5660697,4.76678168 99.5148642,4.94939638 99.4820119,5.09915878 M98.3134613,8.80192415 C98.2978611,8.78302032 98.2690465,8.76301529 98.2705148,8.74557972 C98.271983,8.72814414 98.3041012,8.71364509 98.3228215,8.69767777 C98.3384217,8.7165816 98.3672363,8.73658663 98.3655845,8.7540222 C98.3641163,8.77145778 98.3319981,8.78595684 98.3134613,8.80192415 M98.2980446,9.19046216 C98.2890515,9.1941328 98.2528956,9.15320509 98.2439026,9.12769409 C98.2387637,9.11337857 98.263357,9.0886017 98.2745525,9.06841314 C98.2951081,9.0693308 98.3219038,9.06235657 98.3351181,9.07263438 C98.3870578,9.11319503 98.3743941,9.15852753 98.2980446,9.19046216 M94.9605086,12.4694513 C94.8962723,12.5034048 94.8057909,12.4705525 94.8180875,12.4145751 C94.8516739,12.2629774 94.9794125,12.1908492 95.1117393,12.1486367 C95.1772604,12.1739642 95.2767349,12.2092024 95.2754502,12.2130566 C95.2284659,12.3659391 95.0829247,12.4048479 94.9605086,12.4694513 M94.069459,12.9312187 C93.700559,13.1248454 93.3681819,13.3962897 92.9398173,13.4634626 C92.9001744,13.5289836 92.861082,13.6027636 92.7854666,13.5007196 C92.7828972,13.497049 92.8506206,13.4416222 92.8856753,13.4100547 L92.8854918,13.4100547 C93.045532,13.0640962 93.3503792,12.9339717 93.6618337,12.8161439 C93.765713,12.776868 93.8701429,12.7388768 93.9703516,12.694829 C94.0323855,12.6676663 94.1804961,12.7049233 94.2054565,12.7542935 C94.2463842,12.8355984 94.1439732,12.8919428 94.069459,12.9312187 M93.6357721,12.3464846 C93.7102862,12.3435481 93.8385753,12.3490541 93.748828,12.4824821 C93.6853258,12.5764507 93.6007174,12.6650968 93.4715106,12.6671157 C93.4364559,12.6260044 93.3727702,12.5764507 93.3810291,12.5575468 C93.4283805,12.447611 93.5056476,12.35144 93.6357721,12.3464846 M101.208134,10.5713596 C101.137107,10.4030605 101.102052,10.207782 100.993951,10.0690316 C100.488687,9.41969408 100.552556,8.73768782 100.741778,7.9883252 C101.100951,6.56686707 101.254934,5.11971441 100.869149,3.67256175 C100.733335,3.16399358 100.818127,2.41701687 99.8969785,2.59027142 C99.800624,2.60844112 99.803377,2.51227017 99.7734612,2.42692762 C99.5919477,1.90991696 99.2549823,1.74271898 98.7757793,1.83944053 C97.6802747,2.06078056 96.9582584,2.83822364 96.2944218,3.61401492 C94.2493207,6.00360625 92.2143139,8.40659545 90.4094567,10.9877946 C89.7274504,11.9632691 89.1500576,13.0077517 88.8459445,14.1766693 C88.800245,14.3523098 88.6765442,14.5907183 88.7462865,14.7002871 C89.2812833,15.5421501 89.5954907,16.5769055 90.7266006,16.9129533 C91.085957,17.0197691 91.2850896,17.0410589 91.4398074,16.6666529 C91.704461,16.0253908 92.1660449,15.4615794 92.1884359,14.7256146 C92.1957772,14.4875731 92.3493937,14.3291847 92.5334767,14.2146605 C94.040828,13.2766266 95.6100297,12.4657807 97.3223866,11.9682244 C97.5351006,11.9065576 97.8599529,11.7911157 97.9946656,12.0445739 C98.206462,12.4439403 97.7757115,12.3174865 97.6220949,12.4342131 C97.4745349,12.5467184 97.5172979,12.7726468 97.520418,12.9539767 C97.5211521,12.9985751 97.5429925,13.1888982 97.625582,13.026472 C97.8415996,12.6012275 97.8966593,12.8049485 97.9232715,13.0892401 C97.9489661,13.363621 97.7371697,13.474658 97.3976348,13.9885487 C97.0926041,14.4495819 96.925039,15.0412903 97.0092804,15.6414411 C97.0845286,16.6204027 97.3844205,16.9505774 98.4252325,17.314155 C98.7660521,17.4332675 98.9290289,17.3857326 99.0270351,17.0364706 C99.190746,16.4532047 99.2182759,15.859294 99.2793921,15.260795 C99.383455,14.2396209 99.7090414,13.2434073 99.888536,12.2270051 C99.990213,11.6519982 100.177967,11.2572201 100.839417,11.2511635 C101.335689,11.2465752 101.369826,10.953474 101.208134,10.5713596" id="Fill-16"></path>
                    <path d="M53.4115353,8.64012202 C53.3796006,8.6377361 53.3520708,8.57441744 53.3225221,8.53844509 C53.3737276,8.518073 53.4264014,8.48026534 53.4759551,8.48393598 C53.509358,8.4863219 53.5381726,8.54762171 53.5704743,8.58396112 C53.5143134,8.605985 53.4612725,8.64379267 53.4115353,8.64012202 M51.4598521,7.63913653 C51.0834273,7.81826411 50.8119829,8.06823519 50.5298937,8.3433502 C50.2109144,8.65480461 49.9354324,8.98296047 49.3938284,9.01654689 C49.0552112,9.03746958 48.7281565,9.36966315 48.410829,9.58457955 C47.548594,10.168396 46.621205,10.6323658 45.6899618,11.090279 C45.5829624,11.1427693 45.461097,11.248851 45.3540976,11.1741533 C45.2002975,11.0669704 45.2667362,10.8792168 45.3306054,10.7595537 C45.6712415,10.1210446 45.5697481,9.34672161 45.9922396,8.72601517 C46.1858662,8.44154001 46.0562924,8.05263494 46.1618235,7.69749982 C46.2941503,7.25151618 46.4951183,7.04651054 46.8739291,6.86352878 C48.5457253,6.05598639 50.2925863,5.56026549 52.1569081,5.53071678 C52.3718244,5.52741319 52.6792411,5.42665393 52.7109922,5.86199269 C52.5272764,6.58878083 52.1982028,7.28767206 51.4598521,7.63913653 M46.2824043,13.5609917 C46.162007,13.8950206 45.8656023,13.9487955 45.5655269,13.991008 C45.5273521,14.0159684 45.4891774,14.0409288 45.4510027,14.0657057 C45.4721089,14.0240438 45.4930316,13.9820149 45.5141378,13.9405366 C45.5231309,13.9115385 45.523865,13.8742814 45.5427689,13.8553776 C45.7431862,13.6558779 45.8769813,13.3508471 46.23542,13.4016856 C46.2596463,13.4053562 46.298188,13.5169439 46.2824043,13.5609917 M44.7568833,14.3373335 C44.7223792,14.4691098 44.6208858,14.5313273 44.4936979,14.5502311 C44.386515,14.5663819 44.2833698,14.5193976 44.3575169,14.4111136 C44.4184496,14.3222839 44.556833,14.2868621 44.6383214,14.2404285 C44.73541,14.2349225 44.7743189,14.2703442 44.7568833,14.3373335 M52.3074046,3.75742711 C51.2636561,3.61408834 50.199719,3.46799658 49.1315606,3.53076465 C48.8874626,3.54508017 48.6429975,3.55242146 48.3985324,3.55976276 C48.1355305,3.56747112 47.9769585,3.47295195 48.0718448,3.18003431 C48.3350302,2.36918834 47.9079504,1.76206329 47.4694916,1.16815257 C47.0682898,0.624896786 46.7208631,0.624529721 46.3284709,1.19017646 C46.1047449,1.51264281 45.9540649,1.88723236 45.7853986,2.24530399 C45.6037016,2.63108902 45.4482497,3.02935424 45.2654515,3.41458866 C45.0817356,3.80184194 44.874344,4.10889158 44.3470555,4.142478 C44.0088054,4.16413482 43.6712894,4.40970112 43.359835,4.59855592 C42.7631713,4.96066526 42.6605767,5.24917813 43.1109651,5.77389715 C43.7703969,6.54234714 43.6283428,7.26252813 43.2170468,8.05171728 C42.9790053,8.50816226 42.6453435,8.94937405 42.6288256,9.47923197 C42.6034981,10.290445 42.305258,11.0240238 42.0798803,11.7796266 C41.9002021,12.3823468 41.6272895,12.9059647 40.9695095,13.1361143 C40.5141657,13.2952368 40.4352468,13.7434228 40.4813134,14.1198477 C40.6292405,15.3300601 42.0305101,16.3141606 43.2763277,16.1981681 C43.7382787,16.155038 44.0561567,16.05538 44.0480813,15.5381858 C44.0411071,15.076969 44.3606369,14.9312443 44.7018236,14.7642298 C45.6281114,14.3105378 46.592574,13.9225504 47.4006669,13.256695 L47.3511132,13.1941105 C47.2320007,13.2146661 47.111787,13.253575 46.9934086,13.2486196 C46.9110026,13.2451325 46.8309825,13.1814467 46.7498612,13.1447403 C46.7885865,13.0685743 46.8069398,12.9593726 46.8689737,12.9210143 C47.8152665,12.3377485 48.7626606,11.756318 49.7206995,11.1925066 C50.0189396,11.0168661 50.3259892,10.7329415 50.7073695,11.0462313 L50.6945222,11.0302639 C51.0248805,10.9445543 51.2557642,10.7219296 51.4688452,10.4741609 C51.4644405,10.4774645 51.4600357,10.480401 51.4556309,10.4837046 C51.4526944,10.4769139 51.4497579,10.4719585 51.4466378,10.4655349 C51.3726743,10.4791163 51.2970589,10.489027 51.2273166,10.514171 C51.0511256,10.5776731 50.9015467,10.803418 50.690301,10.5929063 C50.6836938,10.5861156 50.7402218,10.4892106 50.7844531,10.4627819 C51.0067107,10.330088 51.240898,10.0215701 51.4466378,10.4655349 C51.4583839,10.463516 51.47013,10.4616807 51.4816925,10.4592948 C51.4774713,10.4642502 51.4730665,10.469022 51.4688452,10.4741609 C51.691837,10.3021911 51.9381375,10.2045519 52.0242142,9.84079072 C52.139656,9.35204405 52.6370287,9.13290641 53.0560331,8.89413081 C53.5930488,9.38856699 53.727578,8.76070278 53.948551,8.53367325 C54.2433039,8.23102839 54.4495943,7.84340805 54.7008501,7.49726601 C54.8498784,7.29207684 54.9333856,7.07697691 54.9097099,6.81636096 C54.7434296,5.00251064 53.9131292,3.97784948 52.3074046,3.75742711" id="Fill-18"></path>
                    <path d="M105.620123,14.5699792 C105.569285,14.7790225 105.525237,15.0326642 105.289031,15.06258 C105.185151,15.0754273 105.235623,14.8568402 105.297106,14.7577328 C105.40227,14.5883324 105.333079,14.3130339 105.601219,14.2416398 C105.731344,14.3469874 105.647102,14.4591256 105.620123,14.5699792 M110.24991,2.15162908 C110.170074,2.09858823 110.133735,1.93689622 110.128779,1.82310615 C110.115565,1.51807537 109.884131,1.51679064 109.681694,1.46907223 C109.186524,1.35216212 108.878557,1.58084344 108.637579,1.99544304 C108.178014,2.78610045 107.704133,3.56923303 107.220342,4.34539138 C106.042431,6.23504056 104.876817,8.13258163 104.005405,10.1888782 C103.505463,11.3691748 103.077649,12.5736977 103.007173,13.8764104 C102.966612,14.6248553 103.320646,15.2314298 103.867756,15.5970263 C104.163427,15.7946906 104.531593,15.8433267 104.699892,16.2368201 C104.745041,16.3425347 104.95959,16.3770388 105.097423,16.4418257 C105.366481,16.568463 105.506333,16.4726591 105.515143,16.1848804 C105.546343,15.161504 106.018755,14.2667837 106.341222,13.3281992 C106.255145,13.3337052 106.189991,13.3783036 106.150348,13.454653 C106.079872,13.5899164 105.97948,13.8143764 105.858165,13.7516084 C105.637192,13.6372677 105.834305,13.4451093 105.891568,13.2922269 C106.264505,12.2939944 106.623495,11.2898888 107.023412,10.3026683 C107.216671,9.82621825 107.439479,9.34683173 107.874451,9.02326418 C108.686765,8.41907565 109.289119,7.64328436 109.747949,6.74893117 C109.942677,6.36975331 110.062707,5.91973197 110.345164,5.624979 C110.847125,5.10136117 110.840334,4.48304065 110.889154,3.84875281 C110.940726,3.17794204 110.875756,2.56898167 110.24991,2.15162908" id="Fill-20"></path>
                </g>
            </g>
        </g>
    </g>
</svg>