<?xml version="1.0" encoding="UTF-8" standalone="no"?>
<svg width="240px" height="52px" viewBox="0 0 240 52" version="1.1" xmlns="http://www.w3.org/2000/svg" xmlns:xlink="http://www.w3.org/1999/xlink">
    <!-- Generator: sketchtool 41.2 (35397) - http://www.bohemiancoding.com/sketch -->
    <title>5A3AE69C-3BA3-4802-8A03-713643137B6A</title>
    <desc>Created with sketchtool.</desc>
    <defs>
        <polygon id="path-1" points="31.3412094 22.5756941 31.3412094 0.0290906132 0.209533221 0.0290906132 0.209533221 22.5756941 31.3412094 22.5756941"></polygon>
    </defs>
    <g id="Page-1" stroke="none" stroke-width="1" fill="none" fill-rule="evenodd">
        <g id="Large-Devices-(-≥-1200px-)-Homepage-Copy" transform="translate(-157.000000, -57.000000)">
            <g id="Homepage-Copy" transform="translate(-32.457031, -1.000000)">
                <g id="MyDomain-logo-text" transform="translate(189.457031, 58.000000)">
                    <text id="student-accommodatio" font-family="OpenSans-Semibold, Open Sans" font-size="20" font-weight="500" letter-spacing="0.208333328" fill="#4A494B">
                        <tspan x="0.723316764" y="50.4375">student accommodation</tspan>
                    </text>
                    <g id="MD-Logo" transform="translate(0.672535, 0.820312)">
                        <path d="M44.0610726,28.3749288 C44.0096835,28.3045747 43.9579885,28.2342206 43.9065995,28.1641725 C43.8527633,28.2357501 43.7735385,28.3002923 43.750597,28.3810465 C43.7089963,28.5297077 43.7704796,28.651145 43.9420824,28.6080149 C43.9977539,28.59425 44.0225308,28.4566007 44.0610726,28.3749288 M42.6120846,29.7070678 C41.5001844,29.7994458 40.6228997,29.0539985 39.8119925,28.168149 C39.4957051,27.8224964 39.5140583,27.4649142 39.6330485,27.0378955 C40.0313137,25.6115432 40.6045464,24.2579921 41.2319212,22.9212647 C42.0532285,21.1722013 42.8766771,19.422832 43.6404776,17.64838 C44.152227,16.4590903 44.0772846,16.3584534 42.8567944,16.2094863 C41.0566478,15.9901651 39.4137273,15.48851 38.2850033,13.9284849 C37.7359356,13.1698845 36.6833776,12.9517869 36.3686196,11.8698636 C35.9400715,10.3970164 35.8984708,8.9685229 36.2563589,7.50729943 C36.6228119,6.01181658 37.3009639,4.64144162 38.0418229,3.30593782 C38.5343014,2.41825297 39.4599163,2.10930683 40.396849,2.4366062 C43.4138151,3.49038784 43.6713722,4.01345506 42.2168782,6.81721775 C41.6320218,7.94471822 41.5072198,9.24290378 40.7382192,10.2976031 C40.4519087,10.6903623 40.5748754,11.2889837 40.6186172,11.7970625 C40.768502,13.5442905 41.3658998,14.0346278 43.0764214,13.8443659 C44.7493189,13.6583865 46.029763,12.7896666 47.0486735,11.5119755 C47.6509655,10.7567399 48.2801756,9.99569235 48.7252416,9.14716107 C49.7496581,7.19223554 51.5546988,5.92402693 52.9305797,4.28385941 C53.5209422,3.58031869 54.7726329,3.08355777 55.8040847,3.40841005 C56.7391821,3.70328538 57.480347,4.46647411 57.7476924,5.53432656 C58.0483796,6.73432231 56.9306675,8.72748374 55.7010007,8.98687614 C54.7004435,9.19824424 54.1516817,9.69255806 54.3079901,10.7282924 C54.3685558,11.1311459 54.1134458,11.2703246 53.936643,11.478022 C53.0786292,12.4840853 52.2775104,13.5397022 51.4406029,14.5546362 C50.3953861,15.8225389 49.6159853,17.2201378 48.8255726,18.6244663 C48.6138986,19.0007076 48.4471901,18.8089163 48.2021744,18.8529641 C47.7959561,18.9260711 47.6916485,19.4014199 47.8308272,19.832721 C47.8855811,20.0031002 48.0636074,20.2557631 47.7519083,20.2725869 C46.64582,20.3328466 46.7577747,20.9339151 46.9728134,21.7255514 C47.0966978,22.1822411 46.705468,22.6456603 46.4127339,22.9209588 C45.8193126,23.479509 45.4228827,24.1916145 44.9157216,24.7997184 C44.2314518,25.6201081 43.5667587,26.6176064 44.2326753,27.9280275 C44.8309908,29.1063052 44.2137103,29.7878221 42.6120846,29.7070678" id="Fill-1" fill="#4A494B"></path>
                        <path d="M28.7329392,16.8161831 C28.7336942,16.8282618 28.7336942,16.8418503 28.735204,16.853929 C28.772195,16.8531741 28.808431,16.8584585 28.8431573,16.872047 L28.7329392,16.8161831 Z" id="Fill-3" fill="#000000"></path>
                        <path d="M29.4562851,15.1517486 C29.4442064,15.0694626 29.4381671,14.9841568 29.4313728,14.8988511 C29.4034409,14.936597 29.3739991,14.9743429 29.3513515,15.0173732 L29.4562851,15.1517486 Z" id="Fill-5" fill="#000000"></path>
                        <path d="M30.5322599,11.4891563 C30.4616,11.4573441 30.3276213,11.4316495 30.3211977,11.3879077 C30.2737852,11.0578553 30.4576234,10.8186514 30.6793917,10.6060598 C30.7524987,10.5360116 30.8626182,10.5727181 30.8831126,10.7024143 C30.9348076,11.026043 30.8188763,11.2933885 30.5322599,11.4891563 M30.0312166,12.5958565 C29.9645331,12.6301158 29.8978497,12.6646811 29.8311663,12.6995523 C29.8654257,12.6331747 29.8999909,12.5667972 29.9342503,12.5007255 C29.9305797,12.3025106 29.9370033,12.1067427 30.1612187,12.0210943 C30.1777366,12.0146707 30.2441141,12.0856365 30.2563496,12.1293784 C30.3175271,12.3468642 30.2652203,12.5172434 30.0312166,12.5958565 M27.8747113,18.1761579 C27.8358637,18.2459002 27.7376738,18.2823008 27.6324486,18.3584667 C27.6180719,18.2024642 27.5835067,18.0648149 27.6036952,17.9357305 C27.6116483,17.8843414 27.7606154,17.8008342 27.8110868,17.820411 C27.9964545,17.8922945 27.9444536,18.0522735 27.8747113,18.1761579 M5.94595905,20.0922357 C5.91904097,20.0986594 5.83736907,20.0191287 5.8437927,19.9983283 C5.87071078,19.909621 5.92148807,19.8279491 5.96370051,19.7438301 C5.99704223,19.7814543 6.04200765,19.8135724 6.06036089,19.8573143 C6.10899697,19.9726338 6.06770218,20.0628705 5.94595905,20.0922357 M5.31552539,21.2928432 C5.137499,21.250019 5.14912272,21.0976872 5.22131212,20.9768617 C5.25618326,20.9184372 5.36477324,20.9040605 5.44002151,20.8698012 C5.46173951,20.9578967 5.4834575,21.0456863 5.5051755,21.133476 C5.44093917,21.1900651 5.36293792,21.304467 5.31552539,21.2928432 M31.3116607,5.20592599 C30.8063349,4.50269116 29.851049,3.8578808 28.9141163,4.20720406 C27.0683925,4.89545041 24.9963122,5.28790377 23.8636116,7.20398161 C23.7782691,7.3483604 23.6586671,7.47316241 23.5121471,7.44012659 C22.120666,7.12475681 21.4645378,8.34769411 20.4814161,8.87902029 C19.911854,9.18674288 19.374716,10.0854397 18.8498134,9.78842313 C18.3270521,9.49293603 18.3668174,8.52908526 18.3695704,7.81361494 C18.3701822,7.66097719 18.3863942,7.50742178 18.3750764,7.35600759 C18.2459919,5.6259092 17.567534,4.10962602 16.4320805,2.83224079 C15.6269852,1.92589682 14.5190615,1.87420187 13.5561284,2.60404889 C13.1144272,2.93868956 12.680679,3.32869583 12.3674504,3.78018543 C11.606097,4.87740306 10.6489758,5.77548808 9.69736049,6.69345577 C9.04092642,7.3269483 8.43924617,8.02681836 7.8810019,8.74932409 C5.63793057,11.6521943 3.8163719,14.8334218 1.88928212,17.9436836 C1.30167268,18.8919341 0.811641274,19.9004444 0.272362023,20.878366 C-0.0439254115,21.4525164 -0.118256017,22.0291139 0.23014958,22.6151939 C0.8110295,23.5915861 1.53506466,24.4391997 2.53378659,25.0060088 C3.6144863,25.618701 3.87234927,25.44771 3.93903269,24.1905133 C3.98277457,23.3652295 3.8931496,22.4573561 4.88850677,22.0569496 C4.88667145,22.0431847 4.88605967,22.0291139 4.88391846,22.0159607 L4.91970727,21.9758895 L4.9190955,22.0431847 C4.90808355,22.0474671 4.89921282,22.0526672 4.88850677,22.0569496 C4.90349525,22.1952107 4.89829516,22.3441778 4.95886084,22.4585796 C5.08916882,22.7051248 5.17695846,22.4848859 5.23324172,22.3915903 C5.44338627,22.04502 5.6373188,21.6889673 5.83767496,21.3365851 C7.46866587,18.4652214 8.97577243,15.5213623 10.8153785,12.7714358 C11.6376034,11.5423807 12.5427239,10.3800091 13.6417768,9.38098129 C13.8191914,9.21947282 14.0171005,8.92796225 14.2529396,9.06652918 C14.5046848,9.21427273 14.634381,9.53514848 14.5156967,9.8636714 C14.4120009,10.149676 14.2826106,10.426504 14.1718794,10.7103674 C13.6735891,11.9868349 13.2306643,13.2886911 12.6653846,14.5348759 C12.1744356,15.6164932 12.3454266,16.5879912 12.8385168,17.5854896 C13.1125918,18.1403691 13.4316323,18.9561704 14.0119004,18.8289213 C14.8864321,18.63713 15.8166353,19.2712343 16.6006243,18.6037883 C18.4992666,16.9883976 20.4860044,15.4583495 22.237209,13.6946035 C23.1496707,12.7757182 24.0327673,11.9271869 25.2144098,11.4215553 C25.6184869,11.2487289 26.1232008,10.7219911 26.4284763,11.0235959 C26.8435654,11.4340966 26.2657443,11.9225986 26.0681411,12.3493113 C24.9176991,14.8364807 23.5433476,17.2208719 22.5972383,19.8013369 C21.9726165,21.5045172 22.7156167,23.4432307 24.2046759,24.4670354 C24.9060754,24.9491138 25.6860879,24.7854641 26.4036995,24.896807 C26.9677556,24.9839849 27.02098,24.0852881 27.2727252,23.6151394 C27.5348706,23.1254139 27.7147323,22.5916406 27.9316064,22.07775 C28.0955619,21.6889673 28.217611,21.2552191 27.9631128,20.9052841 C27.3277849,20.0313642 28.024902,19.3853303 28.5072862,19.073937 C29.5785034,18.3835495 29.5203848,17.2618608 29.9061087,16.3087161 C29.9507682,16.1982908 29.9663685,16.0224056 29.7947657,15.9716284 C29.7666241,15.9633694 29.6708814,16.1187601 29.6357043,16.2096086 C29.5261967,16.4928603 29.4668546,16.8024182 29.3181934,17.0618106 C29.2034856,17.2618608 29.2398862,17.7424097 28.8202089,17.5337946 C28.7036658,17.475676 28.7544431,17.0813874 28.7339487,16.8314775 C28.5277807,16.8320892 28.2686941,17.3193676 28.2261758,16.91682 C28.1356332,16.0563591 28.4620149,15.2491226 29.0581892,14.5862649 C29.2481452,14.3745909 29.2937224,14.5966651 29.3454173,14.7067845 C29.3723354,14.7642913 29.3784531,14.8312806 29.3836532,14.8988817 C29.6335631,14.5608763 30.3441392,14.7034197 30.2964208,14.081245 C30.2355493,13.2828793 30.9299134,11.7843376 31.6671017,11.5778636 C32.3963369,11.3738368 32.6119874,10.925712 32.7563662,10.2925254 C33.2035734,8.32995264 32.3776778,6.68917334 31.3116607,5.20592599" id="Fill-7" fill="#4A494B"></path>
                        <path d="M144.928867,11.4800409 C144.88849,11.5039001 144.724534,11.4265106 144.719028,11.3830746 C144.677122,11.0521046 144.863407,10.8156538 145.07294,10.6104034 C145.17113,10.5522848 145.271155,10.5847089 145.287673,10.7128756 C145.329274,11.0355867 145.216707,11.3102735 144.928867,11.4800409 L144.928867,11.4800409 Z M144.43333,12.5959176 C144.366646,12.6304829 144.299963,12.6647423 144.233585,12.6990017 C144.267539,12.63293 144.301492,12.5665525 144.336058,12.5004808 C144.332387,12.3022659 144.338811,12.106498 144.563026,12.0211555 C144.579544,12.0150377 144.645921,12.0856977 144.658157,12.1294396 C144.719334,12.3469254 144.667334,12.5173046 144.43333,12.5959176 L144.43333,12.5959176 Z M142.278354,18.1728543 C142.239506,18.2447378 142.142234,18.2845032 142.037621,18.3643397 C142.021103,18.2074196 141.991126,18.0719115 141.997855,17.9385447 C142.003667,17.8250605 142.102469,17.7678596 142.211365,17.8140485 C142.39765,17.8929675 142.345649,18.04897 142.278354,18.1728543 L142.278354,18.1728543 Z M120.468286,20.0045073 C120.44045,20.0292841 120.40925,20.073026 120.382943,20.0907675 C120.374379,20.0968852 120.365814,20.0999441 120.358778,20.0984146 C120.230917,20.0724142 120.192987,19.9837069 120.252024,19.866858 C120.273742,19.8240338 120.31626,19.7922215 120.349602,19.7552091 C120.388755,19.8381046 120.428521,19.9213059 120.468286,20.0042014 L120.468286,20.0045073 Z M119.668391,21.3002457 C119.626484,21.2929044 119.576319,21.1375137 119.591001,21.0622654 C119.605378,20.9888525 119.698062,20.9307339 119.756486,20.8664976 C119.810017,20.9230867 119.904536,20.9787582 119.906983,21.0377944 C119.913712,21.1864557 119.854982,21.3329757 119.668391,21.3002457 L119.668391,21.3002457 Z M145.713468,5.20598716 C145.208142,4.50275234 144.252856,3.85794198 143.316229,4.20726524 C141.4702,4.89551159 139.398119,5.28796495 138.265725,7.20404279 C138.180382,7.34842158 138.060474,7.4729177 137.913954,7.43988188 C136.522779,7.12481799 135.866345,8.34775528 134.882917,8.87908147 C134.313661,9.18680406 133.776829,10.0855008 133.251315,9.78848431 C132.728859,9.49299721 132.768625,8.52914643 132.771378,7.81367612 C132.771989,7.66103837 132.788507,7.50748296 132.776884,7.35606876 C132.648105,5.62597038 131.969341,4.1096872 130.833888,2.83230197 C130.028792,1.925958 128.921175,1.87426305 127.958242,2.60380418 C127.516234,2.93875074 127.08218,3.32875701 126.769258,3.78024661 C126.00821,4.87746424 125.050783,5.77554926 124.099168,6.69351694 C123.44304,7.32670359 122.841053,8.02687954 122.282809,8.74938527 C120.039738,11.6522554 118.217873,14.8331771 116.291089,17.9437447 C115.703786,18.8916894 115.213449,19.9001997 114.674475,20.8784272 C114.357882,21.4525776 114.283551,22.0288692 114.631957,22.6149492 C115.213143,23.5916472 115.936872,24.4392609 116.935594,25.00607 C118.016599,25.6187622 118.274157,25.4477712 118.34084,24.1905745 C118.384582,23.3649848 118.294957,22.4574173 119.290314,22.0570108 C119.288785,22.0432459 119.288173,22.0288692 119.286032,22.015716 L119.321209,21.9759507 L119.320903,22.0432459 C119.309891,22.0475283 119.30102,22.0524225 119.290314,22.0570108 C119.304997,22.194966 119.300102,22.344239 119.360668,22.4586408 C119.490976,22.7051859 119.578766,22.4849471 119.635355,22.3916515 C119.845194,22.0450812 120.039126,21.6890284 120.239176,21.3366463 C121.870473,18.4652825 123.377274,15.5211176 125.217186,12.7714969 C126.039411,11.5424419 126.944837,10.3800703 128.043584,9.38104247 C128.221305,9.21953399 128.418908,8.92802343 128.654747,9.06628447 C128.906492,9.21402802 129.036188,9.53520965 128.917198,9.86342669 C128.813808,10.1497372 128.684418,10.4265652 128.573687,10.7101226 C128.075396,11.9868961 127.632777,13.2887523 127.066886,14.5346311 C126.576243,15.6165544 126.74754,16.5880524 127.240324,17.5855507 C127.514399,18.1404303 127.83344,18.9562316 128.413708,18.8286766 C129.288239,18.6368853 130.218443,19.2712955 131.002432,18.6038495 C132.901074,16.9884588 134.888118,15.4581048 136.639016,13.6946647 C137.551478,12.7754735 138.43488,11.9269422 139.616217,11.4216164 C140.019988,11.2487901 140.525314,10.7217464 140.83059,11.0236571 C141.245373,11.4341578 140.667246,11.9226598 140.469948,12.3493725 C139.319506,14.8365419 137.945461,17.2209331 136.999046,19.8013981 C136.374424,21.5042725 137.117424,23.442986 138.606789,24.4670966 C139.307883,24.9491749 140.087895,24.7855252 140.805813,24.8965623 C141.369563,24.9837402 141.422787,24.0853493 141.674532,23.6152006 C141.936678,23.1251692 142.11654,22.5917018 142.333414,22.0778112 C142.497369,21.6890284 142.619418,21.2552803 142.36492,20.9050394 C141.729898,20.0314253 142.426709,19.3853914 142.909093,19.0739982 C143.980311,18.3833047 143.922192,17.2616161 144.307916,16.3087773 C144.352576,16.1980461 144.368482,16.0224668 144.196267,15.9716895 C144.168431,15.9634306 144.072689,16.1188213 144.037512,16.2096698 C143.92831,16.4929214 143.868662,16.8021735 143.720001,17.0618717 C143.605599,17.261922 143.641693,17.7424709 143.222016,17.5338558 C143.105779,17.4757372 143.156556,17.0814485 143.135756,16.8315386 C142.929588,16.8324563 142.670501,17.3191229 142.628289,16.9165753 C142.53744,16.0564203 142.863822,15.2488779 143.459996,14.5860202 C143.649952,14.3746521 143.695836,14.5964204 143.747225,14.7068457 C143.774143,14.7640466 143.779955,14.8316477 143.785461,14.8989429 C144.035065,14.5609375 144.745947,14.7034809 144.698228,14.0810003 C144.637357,13.2829405 145.331415,11.7843987 146.068909,11.5779248 C146.798144,11.3735921 147.013489,10.9257732 147.158174,10.2925865 C147.605381,8.33001382 146.779485,6.68923452 145.713468,5.20598716 L145.713468,5.20598716 Z" id="Fill-9" fill="#4A494B"></path>
                        <g id="Group-13" transform="translate(183.226473, 3.102798)">
                            <mask id="mask-2" fill="white">
                                <use xlink:href="#path-1"></use>
                            </mask>
                            <g id="Clip-12"></g>
                            <path d="M28.6510838,2.09416541 C28.5877651,2.11007155 28.4320685,2.02289367 28.4323744,1.9837401 C28.4345156,1.76625426 28.6333423,1.70140616 28.7820036,1.60046336 C28.8991584,1.52062678 28.9658418,1.55305083 28.9802185,1.69406486 C28.9585005,1.90023288 28.8456281,2.04552933 28.6510838,2.09416541 M25.0284609,6.04255825 C24.9639187,5.98352201 24.846458,5.90735608 24.8568582,5.88104977 C24.9807425,5.56200935 25.1465334,5.26652225 25.4860683,5.13193186 C25.5114569,5.12153169 25.6481885,5.26529871 25.6350354,5.30231106 C25.522163,5.61829261 25.3964433,5.93488593 25.0284609,6.04255825 M24.5748301,6.78402899 C24.4870404,6.95838473 24.4166864,7.14558774 24.3053434,7.30311968 C24.2282598,7.41201555 24.024233,7.57291225 23.9973149,7.5524178 C23.7957352,7.39916828 23.8871955,7.20156511 23.997009,7.03638598 C24.1052931,6.87365396 24.2438601,6.73141638 24.368968,6.58030807 C24.4518634,6.4833418 24.5610652,6.37138706 24.6736317,6.48395358 C24.7886453,6.59835541 24.6730199,6.70327475 24.5748301,6.78402899 M9.88306465,4.05887932 C9.77661589,4.11363314 9.63407242,4.08396208 9.63743718,3.97751331 C9.64844912,3.63950788 9.89682958,3.45322254 10.1614221,3.29324349 C10.2449293,3.33086763 10.3917552,3.36053869 10.3960376,3.40458646 C10.4336617,3.7759336 10.1553043,3.91878296 9.88306465,4.05887932 M30.8516368,1.27866995 C30.4965017,1.14683254 30.0728478,1.19883338 29.6785591,1.17099764 C29.6797827,1.17589183 29.6800886,1.18109192 29.6819239,1.18598611 L29.635429,1.23309275 L29.6647942,1.17007997 C29.6693825,1.17038586 29.6742767,1.17069175 29.6785591,1.17099764 C29.6127934,0.923840724 30.0040232,0.632330158 29.5638514,0.408114792 C28.0084147,-0.384745004 25.6065878,0.109874706 24.4445221,1.48544975 L24.4723579,1.46434352 C25.0122489,1.61361651 24.7051381,1.87606779 24.5540298,2.10915388 C24.3019786,2.4979366 24.0603277,2.30951004 23.8232651,2.08713 L23.8465125,2.13209543 C22.2861816,3.68019089 21.0947507,5.51459683 19.8207302,7.28598999 C19.6922575,7.46462816 19.5949854,7.87390532 19.3218281,7.7231029 C19.0590709,7.57780644 19.2786979,7.26488377 19.4132883,7.0574922 C20.6304138,5.17475607 21.8897517,3.32322045 23.3937994,1.65032298 C23.5449077,1.48239087 23.8792424,1.27255221 23.6736862,1.04588974 C23.4280587,0.775485399 23.2381027,1.1382677 23.0824061,1.29304666 C22.8309668,1.54326244 22.6162339,1.83202002 22.3972186,2.11282453 C20.6074722,4.40483782 19.072224,6.8678421 17.5375876,9.33176403 C17.349467,9.63398065 17.1738877,9.94415034 16.9833199,10.2448375 C16.8796241,10.4087931 16.787552,10.6219965 16.5449834,10.5898784 C16.2959912,10.5568425 16.263873,10.327733 16.2170723,10.1338004 C16.0372106,9.39294149 15.7931125,8.65911793 15.7004287,7.90694114 C15.4544953,5.90888551 14.2740764,4.61131173 12.6773448,3.55324767 C10.5979232,2.17553142 10.611994,2.15350754 8.8393773,3.97353678 C8.55520803,4.26565912 8.27287408,4.55992267 7.99054013,4.85388033 C5.11611748,7.84851668 2.67697242,11.1303812 0.8948732,14.9163479 C-0.144837621,17.1254657 0.0197297287,19.1011916 1.24389057,21.1194358 C2.23710653,22.7568503 3.33463004,22.7883567 4.26819798,21.1289183 C5.91662446,18.1985182 7.02301871,15.0099494 8.56774941,12.029078 C8.63504461,11.8981582 8.68429246,11.7485793 8.70264569,11.602977 C8.92502573,9.85421949 10.2002698,8.94359309 11.5192556,8.0785439 C12.0334521,7.74145613 12.2353377,8.01002515 12.2907033,8.53676303 C12.3763518,9.35011727 12.4017404,10.1588832 12.3451513,10.9771316 C12.1411245,13.9326144 12.9679377,16.8201902 12.9520316,19.7671081 C12.9501963,20.106643 13.1181284,20.4605546 13.2594483,20.7854069 C13.5812417,21.525654 14.136733,22.0560626 14.9213338,22.2429597 C15.6784048,22.4228214 16.4779941,22.1310049 17.2549478,22.5262113 C17.7046021,22.755015 17.7633324,22.1319226 17.8820167,21.8492828 C18.5304977,20.302105 19.1257543,18.7325974 19.7662823,17.181749 C20.2061481,16.1169554 20.3673507,14.9359247 21.088327,13.98798 L21.0534559,14.0182629 C21.0060433,13.4019 21.5615346,13.0733771 21.7664791,12.5564276 C22.4583961,10.8098113 23.3454692,9.1837146 24.6384546,7.73778548 C26.4890726,5.66815224 28.5455527,3.90348859 30.897214,2.45388883 C31.5034826,2.08009459 31.4897176,1.51603847 30.8516368,1.27866995" id="Fill-11" fill="#4A494B" mask="url(#mask-2)"></path>
                        </g>
                        <path d="M108.768465,14.0418468 C107.930028,15.1870887 106.761233,15.9019472 105.485683,16.4439795 C103.337742,17.3561353 101.172367,18.2269963 99.0198378,19.1290579 C98.0654695,19.5285467 97.0936657,19.7591857 96.0548725,19.5799357 L96.0080718,19.6212305 L96.0493666,19.5744298 C96.3041707,17.5060201 97.3692701,15.880841 98.9130832,14.5691964 C99.4581743,14.1057772 99.9674766,13.6359344 100.428143,13.0893138 C101.65781,11.6311492 103.145951,10.4981428 104.898685,9.73097751 C106.536406,9.01428364 107.566634,9.25042861 108.724111,10.6055092 C110.396091,12.5628818 110.359079,11.8688236 108.768465,14.0418468 M107.019402,20.3758544 C106.920294,20.593952 106.762762,20.8102143 106.465746,20.7563782 C106.314637,20.7291542 106.218895,20.6285173 106.284355,20.4327494 C106.395697,20.2348404 106.51897,20.0066485 106.818128,20.0546728 C106.979636,20.0806732 107.074461,20.2550289 107.019402,20.3758544 M105.29175,21.4678719 C105.107912,21.5085549 104.943345,21.4360597 105.024711,21.2568097 C105.098735,21.0934659 105.290833,20.9680521 105.456318,20.8674152 C105.584484,20.7900258 105.78637,20.8200027 105.794323,20.9931349 C105.809312,21.3097282 105.538295,21.3914001 105.29175,21.4678719 M103.89721,22.3188503 C103.754667,22.2689907 103.661983,22.1790598 103.721325,22.0206102 C103.777914,21.8682784 103.905775,21.8306542 104.036695,21.9159968 C104.104296,21.9603504 104.176791,22.0567049 104.178321,22.1310355 C104.181991,22.3090619 104.038224,22.3246622 103.89721,22.3188503 M98.2854025,24.4325313 C98.2043424,24.4331431 98.1229764,24.34933 98.0416103,24.3028351 C98.1199175,24.2526696 98.1976128,24.1636564 98.2768376,24.1624329 C98.3560625,24.1612093 98.4371226,24.2465519 98.517265,24.2945762 C98.4398756,24.3447417 98.3630979,24.4319196 98.2854025,24.4325313 M98.1193057,13.9583395 C98.2915202,13.9375392 98.4563935,14.0338937 98.4144869,14.1908139 C98.3092617,14.5857143 98.0556812,14.8763072 97.6794398,14.9937679 C97.4714365,14.9711323 97.3414344,14.8704954 97.3463286,14.7111281 C97.3603994,14.2241556 97.6717926,14.0124816 98.1193057,13.9583395 M111.077302,7.94184288 C110.179523,7.25757306 109.28572,6.54974993 108.883479,5.45926182 C107.963982,2.96750414 105.98122,2.53895608 104.054742,3.31743918 C100.086467,4.92151201 96.7376129,7.29397365 94.2079252,10.7575352 C92.640253,12.9036402 91.7161675,15.2923139 91.7721449,17.9978868 C91.7782627,19.326967 91.7277913,20.7147775 92.6029347,21.8006773 C93.5992096,23.0373795 94.9802906,23.8648046 96.2934646,24.7350538 C97.0780654,25.2547563 98.0792345,24.9026801 98.8763767,24.8876916 C99.9521822,24.8671971 101.516796,24.8170316 101.936473,23.1872643 C102.001627,22.9333778 102.266525,22.7088566 102.516741,22.8832123 C103.184799,23.3484669 103.718572,23.274748 104.185356,22.6192316 C105.853359,22.8562942 106.637654,21.3085047 107.804614,20.6303526 C108.832701,20.0332607 109.979167,19.275272 110.796498,18.2679852 C111.194457,17.7773421 111.859762,17.9015323 112.319204,17.278134 C114.930258,13.7381007 114.57757,10.6082622 111.077302,7.94184288" id="Fill-14" fill="#4A494B"></path>
                        <path d="M164.826497,7.22646433 C164.523057,8.61458075 164.254794,10.0121797 163.891706,11.3846958 C163.779751,11.8080438 163.907306,12.5865269 162.937643,12.3870884 C162.698746,12.3375347 162.520107,13.0065101 162.453118,13.3986576 C162.348199,14.0119616 162.058829,14.3820852 161.407289,14.5166756 C159.57166,14.8956699 157.930881,15.7289068 156.389821,16.7725942 C156.38095,16.7982887 156.369326,16.8224538 156.360455,16.8484542 L156.330479,16.8117477 C156.350055,16.7982887 156.369938,16.7860532 156.389821,16.7725942 C156.920229,15.2413225 158.021729,14.0746685 158.953768,12.8015657 C159.427587,12.1546141 160.022844,11.5982051 159.964113,10.6689196 C159.94729,10.4031036 160.018561,9.81427061 160.704972,10.1354522 C161.082437,10.3119492 161.232934,9.78704664 161.435431,9.54019562 C162.241444,8.55829749 162.990868,7.52623385 163.979496,6.71104428 C164.201876,6.52781781 164.463715,6.24731919 164.76532,6.50212328 C164.966594,6.67250249 164.881251,6.97686032 164.826497,7.22646433 M162.878913,13.3977399 C162.852913,13.3662336 162.804888,13.3328918 162.807336,13.3038326 C162.809783,13.2747733 162.863313,13.2506082 162.894513,13.223996 C162.920514,13.2555024 162.968538,13.2888441 162.965785,13.3179034 C162.963338,13.3469627 162.909808,13.3711277 162.878913,13.3977399 M162.853219,14.0453033 C162.83823,14.051421 162.77797,13.9832082 162.762982,13.9406898 C162.754417,13.9168306 162.795406,13.8755359 162.814065,13.8418883 C162.848324,13.8434177 162.892984,13.831794 162.915008,13.8489237 C163.001574,13.9165247 162.980468,13.9920789 162.853219,14.0453033 M157.290659,19.5102852 C157.183598,19.5668743 157.032796,19.5121205 157.05329,19.4188249 C157.109268,19.166162 157.322165,19.0459483 157.54271,18.9755943 C157.651912,19.0178067 157.817702,19.0765371 157.815561,19.0829607 C157.737254,19.3377648 157.494685,19.4026129 157.290659,19.5102852 M155.805576,20.2798976 C155.190743,20.6026086 154.636781,21.0550159 153.92284,21.1669706 C153.856768,21.2761724 153.791614,21.3991391 153.665589,21.2290658 C153.661306,21.222948 153.774179,21.1305701 153.832603,21.0779574 L153.832297,21.0779574 C154.099031,20.5013599 154.60711,20.2844859 155.1262,20.0881062 C155.299333,20.0226464 155.473382,19.9593277 155.640397,19.8859148 C155.743787,19.8406434 155.990638,19.9027386 156.032238,19.9850222 C156.100451,20.1205303 155.929766,20.2144377 155.805576,20.2798976 M155.082764,19.3053407 C155.206955,19.3004465 155.42077,19.3096232 155.271191,19.5320032 C155.165354,19.6886175 155.02434,19.836361 154.808995,19.8397258 C154.750571,19.771207 154.644428,19.6886175 154.658193,19.6571111 C154.737112,19.4738846 154.86589,19.3135997 155.082764,19.3053407 M167.703367,16.3467991 C167.584989,16.0663005 167.526564,15.7408364 167.346397,15.5095856 C166.504289,14.4273565 166.610738,13.2906794 166.926108,12.0417417 C167.524729,9.6726448 167.781368,7.2607237 167.138393,4.8488026 C166.912037,4.00118899 167.053357,2.75622781 165.518108,3.04498539 C165.357518,3.07526823 165.362106,2.9149833 165.312246,2.77274572 C165.009724,1.91106129 164.448115,1.63239799 163.649443,1.79360058 C161.823602,2.16250062 160.620242,3.45823909 159.513847,4.75122456 C156.105345,8.73387678 152.713667,12.7388588 149.705572,17.0408573 C148.568895,18.6666481 147.606574,20.4074526 147.099718,22.3556486 C147.023553,22.6483827 146.817385,23.0457302 146.933622,23.2283449 C147.825283,24.6314498 148.348962,26.3560422 150.234145,26.9161218 C150.833073,27.0941482 151.16496,27.1296311 151.422823,26.5056211 C151.863913,25.436851 152.633219,24.4971653 152.670537,23.2705574 C152.682773,22.8738216 152.938801,22.6098409 153.245605,22.4189672 C155.757858,20.8555774 158.373194,19.5041675 161.227122,18.6749071 C161.581645,18.572129 162.123066,18.3797259 162.347587,18.8021562 C162.700581,19.4677669 161.982663,19.2570105 161.726636,19.4515548 C161.480702,19.6390637 161.551974,20.015611 161.557174,20.3178276 C161.558398,20.3921582 161.594798,20.7093633 161.732448,20.4386531 C162.092477,19.7299123 162.184243,20.0694471 162.228597,20.5432665 C162.271421,21.000568 161.918427,21.1856298 161.352536,22.0421141 C160.844151,22.8105029 160.564876,23.7966835 160.705278,24.7969348 C160.830692,26.4285375 161.330512,26.9788287 163.065198,27.5847914 C163.633231,27.7833122 163.904859,27.7040874 164.068203,27.121984 C164.341054,26.1498742 164.386937,25.160023 164.488798,24.1625246 C164.662236,22.4605679 165.20488,20.8002118 165.504038,19.1062081 C165.673499,18.1478633 165.986422,17.4898998 167.08884,17.4798055 C167.915959,17.4721583 167.972854,16.9836564 167.703367,16.3467991" id="Fill-16" fill="#4A494B"></path>
                        <path d="M88.0423697,13.1280697 C87.9891453,13.1240932 87.9432622,13.0185621 87.8940144,12.9586082 C87.9793569,12.9246547 88.0671466,12.8616419 88.1497361,12.8677597 C88.2054076,12.8717362 88.2534319,12.9739025 88.3072681,13.0344682 C88.2136666,13.0711747 88.1252652,13.1341875 88.0423697,13.1280697 M84.7895645,11.4597606 C84.1621897,11.7583065 83.7097825,12.174925 83.2396337,12.63345 C82.7080017,13.1525407 82.2488649,13.6994671 81.3461915,13.7554445 C80.7818295,13.7903157 80.2367384,14.3439716 79.7078593,14.7021656 C78.270801,15.675193 76.7251526,16.448476 75.1730806,17.2116647 C74.9947483,17.2991485 74.7916392,17.4759513 74.6133069,17.3514552 C74.3569734,17.1728171 74.4677046,16.8598944 74.5741533,16.6604559 C75.1418801,15.5962741 74.9727244,14.3057357 75.6768769,13.271225 C75.999588,12.7970997 75.7836316,12.1489246 75.9595168,11.5570327 C76.1800615,10.8137267 76.515008,10.4720506 77.1463594,10.167081 C79.9326865,8.82117701 82.8441215,7.9949755 85.9513243,7.94572765 C86.3095183,7.94022168 86.8218795,7.77228957 86.874798,8.49785417 C86.5686048,9.70916774 86.020149,10.8739865 84.7895645,11.4597606 M76.1604847,21.3295191 C75.9598227,21.886234 75.4658147,21.9758589 74.965689,22.046213 C74.9020645,22.0878137 74.8384399,22.1294143 74.7748154,22.1707091 C74.8099924,22.1012727 74.8448636,22.0312245 74.8800406,21.962094 C74.8950291,21.9137638 74.8962526,21.8516687 74.927759,21.8201623 C75.2617879,21.4876628 75.4847797,20.9792782 76.0821776,21.064009 C76.1225547,21.0701267 76.186791,21.2561062 76.1604847,21.3295191 M73.6179497,22.6234223 C73.5604429,22.8430493 73.3912873,22.9467451 73.1793074,22.9782515 C73.0006692,23.0051696 72.8287606,22.9268624 72.952339,22.746389 C73.0538936,22.5983395 73.2845326,22.5393033 73.4203466,22.4619138 C73.5821609,22.4527372 73.647009,22.5117734 73.6179497,22.6234223 M86.2021519,4.99024487 C84.462571,4.75134692 82.6893425,4.50786065 80.9090786,4.6124741 C80.5022486,4.63633331 80.0948067,4.6485688 79.6873649,4.66080429 C79.2490284,4.67365155 78.9847418,4.51611961 79.1428856,4.02792353 C79.5815279,2.67651359 78.8697282,1.66463851 78.1389635,0.674787311 C77.470294,-0.230638999 76.8912494,-0.231250774 76.2372624,0.711493783 C75.8643858,1.24893771 75.6132524,1.87325362 75.332142,2.47003968 C75.0293136,3.11301472 74.7702271,3.77679009 74.4655634,4.41884746 C74.1593702,5.06426959 73.8137176,5.57601899 72.9349035,5.63199636 C72.3711532,5.66809106 71.8086266,6.07736822 71.2895359,6.39212622 C70.2950964,6.9956418 70.1241054,7.47649658 70.8747527,8.35102828 C71.9738057,9.63177826 71.7370489,10.8320799 71.0515556,12.1473951 C70.6548198,12.9081368 70.0987167,13.6434898 70.0711869,14.5265863 C70.0289744,15.878608 69.5319076,17.1012394 69.1562781,18.3605773 C68.8568144,19.3651111 68.4019601,20.2378075 67.3056601,20.6213901 C66.5467538,20.8865944 66.4152223,21.6335711 66.492,22.2609459 C66.7385451,24.2779665 69.0739944,25.918134 71.1503572,25.7248133 C71.9202754,25.6529298 72.4500722,25.486833 72.4366131,24.6248427 C72.4249894,23.856148 72.9575391,23.6132735 73.5261836,23.3349161 C75.0699966,22.5787627 76.6774342,21.932117 78.0242558,20.822358 L77.9416663,20.7180505 C77.7431454,20.7523099 77.5427893,20.817158 77.345492,20.808899 C77.2081486,20.8030871 77.0747817,20.6969443 76.9395796,20.6357668 C77.0041218,20.5088236 77.0347105,20.3268207 77.1381004,20.2628902 C78.7152552,19.2907805 80.2942452,18.3217296 81.8909768,17.3820439 C82.3880436,17.0893098 82.899793,16.6161022 83.5354267,17.1382518 L83.5140146,17.1116396 C84.0646117,16.9687903 84.4494179,16.597749 84.804553,16.1848012 C84.7972117,16.1903072 84.7898704,16.1952014 84.7825291,16.2007073 C84.7776349,16.1893895 84.7727407,16.1811305 84.7675406,16.1704245 C84.6442681,16.1930601 84.5182425,16.2095781 84.4020053,16.2514846 C84.1083536,16.3573216 83.8590554,16.7335629 83.5069792,16.3827102 C83.4959673,16.3713924 83.5901805,16.2098839 83.6638994,16.1658362 C84.0343288,15.9446797 84.424641,15.4304832 84.7675406,16.1704245 C84.7871174,16.1670597 84.8066942,16.1640009 84.8259651,16.1600243 C84.8189297,16.1682833 84.8115884,16.1762363 84.804553,16.1848012 C85.176206,15.8981848 85.5867067,15.7354528 85.7301679,15.1291842 C85.9225709,14.3146064 86.7515254,13.949377 87.4498661,13.5514177 C88.3448922,14.375478 88.5691076,13.3290377 88.9373958,12.9506551 C89.4286508,12.446247 89.7724681,11.8002131 90.1912278,11.2233097 C90.4396082,10.8813278 90.5787869,10.5228279 90.5393275,10.088468 C90.2621936,7.06538409 88.8783596,5.35761548 86.2021519,4.99024487" id="Fill-18" fill="#4A494B"></path>
                        <path d="M175.056683,23.011165 C174.971952,23.3595706 174.898539,23.7823068 174.504862,23.8321664 C174.33173,23.8535785 174.415849,23.4892668 174.518321,23.3240876 C174.693595,23.0417537 174.578275,22.5829228 175.025176,22.4639326 C175.242051,22.6395119 175.101648,22.8264091 175.056683,23.011165 M182.772995,2.31391482 C182.639934,2.2255134 182.579368,1.95602672 182.571109,1.76637661 C182.549086,1.25799197 182.163362,1.25585076 181.825968,1.17632007 C181.000684,0.981469885 180.487405,1.36260542 180.085775,2.05360476 C179.319834,3.3713671 178.530033,4.67658807 177.723714,5.97018532 C175.760529,9.11960062 173.817839,12.2821691 172.365487,15.70933 C171.53225,17.676491 170.819227,19.6840292 170.701766,21.855217 C170.634165,23.1026253 171.224221,24.1135827 172.136071,24.7229101 C172.628856,25.0523507 173.242466,25.1334108 173.522964,25.7892331 C173.598212,25.9654242 173.955795,26.022931 174.185516,26.1309092 C174.633947,26.3419714 174.867033,26.1822983 174.881715,25.702667 C174.933716,23.9970396 175.72107,22.5058392 176.258514,20.9415317 C176.115053,20.9507083 176.006463,21.0250389 175.940391,21.152288 C175.82293,21.377727 175.65561,21.7518271 175.453419,21.6472136 C175.08513,21.4566459 175.413653,21.1363819 175.50909,20.8815778 C176.130653,19.217857 176.728969,17.5443477 177.395497,15.8989801 C177.717596,15.1048968 178.088943,14.3059192 178.813896,13.76664 C180.167753,12.7596591 181.171675,11.4666736 181.936393,9.97608497 C182.26094,9.34412188 182.46099,8.5940863 182.931751,8.10283135 C183.768352,7.23013498 183.757034,6.19960077 183.8384,5.14245438 C183.924355,4.02443642 183.816071,3.00950247 182.772995,2.31391482" id="Fill-20" fill="#4A494B"></path>
                        <path d="M176.295352,20.8992275 C176.283273,20.9347087 176.27044,20.9694349 176.258361,21.0041611 C176.296862,21.0026513 176.330833,20.9920824 176.371599,20.9943472 L176.295352,20.8992275 Z" id="Fill-22" fill="#4A494B"></path>
                    </g>
                </g>
            </g>
        </g>
    </g>
</svg>